# xmcd CD database file
#
# Track frame offsets:
#	150
#	15914
#	29270
#	49558
#	60745
#	71846
#	77785
#	91980
#	106277
#	120493
#	132166
#	154930
#
# Disc length: 2317 seconds
#
# Revision: 0
# Processed by: cddbd v1.4PL0 Copyright (c) Steve Scherf et al.
# Submitted via: CDex 1.50beta10
#
DISCID=92090b0c
DTITLE=Gnomusy - Scent of Light
DYEAR=1900
DGENRE=New Age
TTITLE0=Altair
TTITLE1=Virtuality II
TTITLE2=Scent of Light
TTITLE3=Glimee
TTITLE4=Camelot
TTITLE5=Our World Inside
TTITLE6=Fuzzy
TTITLE7=Alexandra
TTITLE8=Mystic Knight
TTITLE9=World's End Garden
TTITLE10=Runa
TTITLE11=Data Track
EXTD=
EXTT0=
EXTT1=
EXTT2=
EXTT3=
EXTT4=
EXTT5=
EXTT6=
EXTT7=
EXTT8=
EXTT9=
EXTT10=
EXTT11=
PLAYORDER=
